<svg xmlns="http://www.w3.org/2000/svg" width="240.38" height="35" viewBox="0 0 240.38 35"><rect class="svg__rect" x="0" y="0" width="102.88999999999999" height="35" fill="#FFFFFF"/><rect class="svg__rect" x="100.88999999999999" y="0" width="139.49" height="35" fill="#C13B3A"/><path class="svg__text" d="M15.00 22L13.46 22L16.68 13.47L18.01 13.47L21.24 22L19.69 22L18.99 20.01L15.69 20.01L15.00 22ZM17.34 15.28L16.10 18.82L18.58 18.82L17.34 15.28ZM24.92 18.19L24.92 18.19L24.92 17.39Q24.92 16.19 25.35 15.27Q25.78 14.35 26.58 13.85Q27.38 13.35 28.43 13.35L28.43 13.35Q29.84 13.35 30.70 14.12Q31.56 14.89 31.70 16.29L31.70 16.29L30.23 16.29Q30.12 15.37 29.69 14.96Q29.26 14.55 28.43 14.55L28.43 14.55Q27.46 14.55 26.94 15.26Q26.42 15.96 26.41 17.33L26.41 17.33L26.41 18.09Q26.41 19.47 26.91 20.20Q27.40 20.92 28.36 20.92L28.36 20.92Q29.23 20.92 29.67 20.53Q30.11 20.14 30.23 19.22L30.23 19.22L31.70 19.22Q31.57 20.59 30.69 21.35Q29.81 22.12 28.36 22.12L28.36 22.12Q27.34 22.12 26.56 21.63Q25.78 21.15 25.36 20.26Q24.94 19.37 24.92 18.19ZM37.70 14.66L35.06 14.66L35.06 13.47L41.83 13.47L41.83 14.66L39.17 14.66L39.17 22L37.70 22L37.70 14.66ZM47.15 22L45.67 22L45.67 13.47L47.15 13.47L47.15 22ZM54.25 22L51.20 13.47L52.82 13.47L54.96 20.14L57.13 13.47L58.76 13.47L55.69 22L54.25 22ZM68.29 22L62.71 22L62.71 13.47L68.25 13.47L68.25 14.66L64.19 14.66L64.19 17.02L67.70 17.02L67.70 18.19L64.19 18.19L64.19 20.82L68.29 20.82L68.29 22ZM77.84 22L72.48 22L72.48 13.47L73.97 13.47L73.97 20.82L77.84 20.82L77.84 22ZM84.00 18.86L81.14 13.47L82.78 13.47L84.75 17.51L86.71 13.47L88.35 13.47L85.49 18.86L85.49 22L84.00 22L84.00 18.86Z" fill="#C13B3A"/><path class="svg__text" d="M117.28 22L115.08 22L115.08 13.60L117.03 13.60L119.99 18.45L122.87 13.60L124.82 13.60L124.85 22L122.67 22L122.64 17.55L120.48 21.17L119.43 21.17L117.28 17.67L117.28 22ZM131.43 22L129.00 22L132.71 13.60L135.05 13.60L138.77 22L136.30 22L135.64 20.37L132.09 20.37L131.43 22ZM133.86 15.93L132.78 18.61L134.94 18.61L133.86 15.93ZM145.30 22L142.92 22L142.92 13.60L145.30 13.60L145.30 22ZM152.81 22L150.47 22L150.47 13.60L152.43 13.60L156.14 18.07L156.14 13.60L158.47 13.60L158.47 22L156.52 22L152.81 17.52L152.81 22ZM165.42 15.48L162.84 15.48L162.84 13.60L170.36 13.60L170.36 15.48L167.79 15.48L167.79 22L165.42 22L165.42 15.48ZM176.15 22L173.72 22L177.43 13.60L179.78 13.60L183.49 22L181.03 22L180.36 20.37L176.81 20.37L176.15 22ZM178.59 15.93L177.50 18.61L179.67 18.61L178.59 15.93ZM190.03 22L187.65 22L187.65 13.60L190.03 13.60L190.03 22ZM197.53 22L195.20 22L195.20 13.60L197.16 13.60L200.86 18.07L200.86 13.60L203.19 13.60L203.19 22L201.24 22L197.53 17.52L197.53 22ZM215.10 22L208.35 22L208.35 13.60L214.95 13.60L214.95 15.44L210.71 15.44L210.71 16.85L214.44 16.85L214.44 18.63L210.71 18.63L210.71 20.17L215.10 20.17L215.10 22ZM223.87 22L219.90 22L219.90 13.60L223.87 13.60Q225.26 13.60 226.32 14.12Q227.39 14.63 227.98 15.58Q228.57 16.53 228.57 17.80L228.57 17.80Q228.57 19.07 227.98 20.02Q227.39 20.97 226.32 21.48Q225.26 22 223.87 22L223.87 22ZM222.28 15.50L222.28 20.10L223.78 20.10Q224.86 20.10 225.51 19.49Q226.17 18.88 226.17 17.80L226.17 17.80Q226.17 16.72 225.51 16.11Q224.86 15.50 223.78 15.50L223.78 15.50L222.28 15.50Z" fill="#FFFFFF" x="113.88999999999999"/></svg>