<?xml version="1.0" encoding="UTF-8" standalone="no"?>
<svg
   width="210.37898"
   height="291.27988"
   viewBox="0 0 210.37898 291.27987"
   version="1.1"
   id="svg10"
   sodipodi:docname="logo.svg"
   inkscape:version="1.1.2 (0a00cf5339, 2022-02-04)"
   xmlns:inkscape="http://www.inkscape.org/namespaces/inkscape"
   xmlns:sodipodi="http://sodipodi.sourceforge.net/DTD/sodipodi-0.dtd"
   xmlns="http://www.w3.org/2000/svg"
   xmlns:svg="http://www.w3.org/2000/svg">
  <defs
     id="defs14">
    <rect
       x="1450.8651"
       y="193.77644"
       width="73.492744"
       height="75.915955"
       id="rect10477" />
    <rect
       x="1450.8651"
       y="193.77644"
       width="73.492744"
       height="75.915955"
       id="rect17848" />
    <rect
       x="1450.8651"
       y="193.77644"
       width="73.492744"
       height="75.915955"
       id="rect36929" />
    <rect
       x="1450.8651"
       y="193.77644"
       width="73.492744"
       height="75.915955"
       id="rect10477-7" />
    <rect
       x="1450.8651"
       y="193.77644"
       width="73.492744"
       height="75.915955"
       id="rect17848-5" />
    <rect
       x="1450.8651"
       y="193.77644"
       width="73.492744"
       height="75.915955"
       id="rect36929-3" />
    <rect
       x="1450.8651"
       y="193.77644"
       width="73.492744"
       height="75.915955"
       id="rect10477-1" />
    <rect
       x="1450.8651"
       y="193.77644"
       width="73.492744"
       height="75.915955"
       id="rect17848-8" />
    <rect
       x="1450.8651"
       y="193.77644"
       width="73.492744"
       height="75.915955"
       id="rect36929-7" />
    <inkscape:path-effect
       effect="powerclip"
       id="path-effect11065"
       is_visible="true"
       lpeversion="1"
       inverse="true"
       flatten="false"
       hide_clip="false"
       message="Use fill-rule evenodd on &lt;b&gt;fill and stroke&lt;/b&gt; dialog if no flatten result after convert clip to paths." />
    <inkscape:path-effect
       effect="bspline"
       id="path-effect29392"
       is_visible="true"
       lpeversion="1"
       weight="33.333333"
       steps="2"
       helper_size="0"
       apply_no_weight="true"
       apply_with_weight="true"
       only_selected="false" />
    <rect
       x="1811.856"
       y="-28.423298"
       width="737.70569"
       height="676.90143"
       id="rect1879" />
    <inkscape:path-effect
       effect="bspline"
       id="path-effect17819"
       is_visible="true"
       lpeversion="1"
       weight="33.333333"
       steps="2"
       helper_size="0"
       apply_no_weight="true"
       apply_with_weight="true"
       only_selected="false" />
    <inkscape:path-effect
       effect="bspline"
       id="path-effect17696"
       is_visible="true"
       lpeversion="1"
       weight="33.333333"
       steps="2"
       helper_size="0"
       apply_no_weight="true"
       apply_with_weight="true"
       only_selected="false" />
    <inkscape:path-effect
       effect="powerclip"
       id="path-effect1884"
       is_visible="true"
       lpeversion="1"
       inverse="true"
       flatten="false"
       hide_clip="false"
       message="Use fill-rule evenodd on &lt;b&gt;fill and stroke&lt;/b&gt; dialog if no flatten result after convert clip to paths." />
    <inkscape:path-effect
       effect="bspline"
       id="path-effect1874"
       is_visible="true"
       lpeversion="1"
       weight="33.333333"
       steps="2"
       helper_size="0"
       apply_no_weight="true"
       apply_with_weight="true"
       only_selected="false" />
    <inkscape:path-effect
       effect="bspline"
       id="path-effect1786"
       is_visible="true"
       lpeversion="1"
       weight="33.333333"
       steps="2"
       helper_size="0"
       apply_no_weight="true"
       apply_with_weight="true"
       only_selected="false" />
    <rect
       x="992.78577"
       y="1500.1165"
       width="476.85791"
       height="126.46153"
       id="rect4707" />
    <rect
       x="1450.8651"
       y="193.77644"
       width="73.492744"
       height="75.915955"
       id="rect10477-2" />
    <rect
       x="1450.8651"
       y="193.77644"
       width="73.492744"
       height="75.915955"
       id="rect17848-6" />
    <rect
       x="1450.8651"
       y="193.77644"
       width="73.492744"
       height="75.915955"
       id="rect36929-1" />
    <rect
       x="1450.8651"
       y="193.77644"
       width="73.492744"
       height="75.915955"
       id="rect71" />
    <rect
       x="1450.8651"
       y="193.77644"
       width="73.492744"
       height="75.915955"
       id="rect73" />
    <rect
       x="1450.8651"
       y="193.77644"
       width="73.492744"
       height="75.915955"
       id="rect75" />
    <clipPath
       clipPathUnits="userSpaceOnUse"
       id="clipPath381">
      <rect
         style="fill:#ffffff;stroke:#1a1a1a;stroke-width:0.264286"
         id="rect383"
         width="361.42084"
         height="176.87338"
         x="747.63165"
         y="220.13397"
         ry="12.168035" />
    </clipPath>
    <clipPath
       clipPathUnits="userSpaceOnUse"
       id="clipPath391">
      <rect
         style="fill:#ffffff;stroke:#1a1a1a;stroke-width:0.264286"
         id="rect393"
         width="361.42084"
         height="176.87338"
         x="560.61536"
         y="170.49109"
         ry="12.168035" />
    </clipPath>
    <clipPath
       clipPathUnits="userSpaceOnUse"
       id="clipPath799">
      <rect
         style="fill:#ffffff;stroke:#1a1a1a;stroke-width:0.264286"
         id="rect801"
         width="361.42084"
         height="176.87338"
         x="486.16626"
         y="95.256149"
         ry="12.168035" />
    </clipPath>
    <clipPath
       clipPathUnits="userSpaceOnUse"
       id="clipPath1876">
      <path
         style="fill:none;stroke:#000000;stroke-width:0.264583px;stroke-linecap:butt;stroke-linejoin:miter;stroke-opacity:1"
         d="m 238.10562,430.68958 c 9.48403,-7.47483 25.35242,-7.51719 33.46337,-5.82868 8.11095,1.68851 8.4646,5.10742 8.68658,14.11803 0.22197,9.0106 0.31229,23.61226 0.0837,32.58103 -0.2286,8.96877 -0.77606,12.30426 -9.19539,12.99846 -8.41934,0.69421 -24.71016,-1.25271 -34.14237,-4.45612 -9.4322,-3.20342 -12.00525,-7.6634 -11.74221,-17.34722 0.26303,-9.68382 3.36229,-24.59066 12.84632,-32.0655 z"
         id="path1878"
         inkscape:path-effect="#path-effect1874"
         inkscape:original-d="m 231.72095,423.2571 c 15.8687,-0.0421 31.73709,-0.0844 47.60529,-0.12706 0.35393,3.41935 0.70755,6.83826 1.06098,10.25697 0.0906,14.60252 0.18092,29.20418 0.27096,43.80588 -0.54719,3.33589 -1.09466,6.67138 -1.6424,10.0067 -16.29127,-1.94673 -32.58209,-3.89364 -48.87352,-5.84087 -2.57286,-4.45989 -5.14591,-8.91987 -7.71927,-13.38021 3.09962,-14.90719 6.19892,-29.81402 9.29796,-44.72141 z" />
    </clipPath>
    <clipPath
       clipPathUnits="userSpaceOnUse"
       id="clipPath1880">
      <path
         style="display:none;fill:none;stroke:#000000;stroke-width:0.264583px;stroke-linecap:butt;stroke-linejoin:miter;stroke-opacity:1"
         d="m 215.42374,345.46814 c 9.48403,-7.47484 25.35244,-7.51719 33.46338,-5.82868 8.11094,1.6885 8.46458,5.10742 8.68656,14.11802 0.22198,9.0106 0.31231,23.61227 0.0837,32.58104 -0.2286,8.96876 -0.77607,12.30426 -9.1954,12.99846 -8.41932,0.6942 -24.71017,-1.25271 -34.14237,-4.45613 -9.4322,-3.20342 -12.00523,-7.6634 -11.7422,-17.34721 0.26303,-9.68382 3.36229,-24.59066 12.84631,-32.0655 z"
         id="path1882"
         inkscape:path-effect="#path-effect1786"
         inkscape:original-d="m 209.03907,338.03565 c 15.8687,-0.0421 31.73711,-0.0844 47.60529,-0.12705 0.35393,3.41934 0.70757,6.83826 1.06097,10.25697 0.0906,14.60251 0.18093,29.20418 0.27099,43.80587 -0.54721,3.33589 -1.09469,6.67139 -1.64243,10.0067 -16.29124,-1.94673 -32.58209,-3.89364 -48.87351,-5.84086 -2.57286,-4.4599 -5.14591,-8.91987 -7.71925,-13.38022 3.09962,-14.90718 6.1989,-29.81402 9.29794,-44.72141 z" />
      <path
         id="lpe_path-effect1884"
         style="fill:none;stroke:#000000;stroke-width:0.264583px;stroke-linecap:butt;stroke-linejoin:miter;stroke-opacity:1"
         class="powerclip"
         d="m 213.73185,339.82397 h 240.16386 v 54.67489 H 213.73185 Z m -4.69278,-1.78832 c -3.09904,14.90739 -6.19832,29.81423 -9.29794,44.72141 2.57334,4.46035 5.14639,8.92032 7.71925,13.38022 16.29142,1.94722 32.58227,3.89413 48.87351,5.84086 0.54774,-3.33531 1.09522,-6.67081 1.64243,-10.0067 -0.0901,-14.60169 -0.18039,-29.20336 -0.27099,-43.80587 -0.3534,-3.41871 -0.70704,-6.83763 -1.06097,-10.25697 -15.86818,0.0427 -31.73659,0.085 -47.60529,0.12705 z" />
    </clipPath>
    <rect
       x="1450.8651"
       y="193.77644"
       width="102.83579"
       height="20.544498"
       id="rect87625" />
    <clipPath
       clipPathUnits="userSpaceOnUse"
       id="clipPath17778">
      <path
         style="fill:none;stroke:#000000;stroke-width:0.264583px;stroke-linecap:butt;stroke-linejoin:miter;stroke-opacity:1"
         d="m 273.54422,342.73442 c -6.12079,1.73132 -13.0806,4.62983 -17.64865,6.61896 -4.56804,1.98913 -6.74422,3.06884 -5.37524,12.1464 1.36899,9.07755 6.283,26.15191 10.31114,35.42551 4.02815,9.27359 7.16999,10.74622 11.87155,9.82879 4.70156,-0.91744 10.96276,-4.22461 15.484,-14.06047 4.52123,-9.83585 7.30237,-26.1999 7.35265,-36.09115 0.0503,-9.89125 -2.6305,-13.30927 -6.6118,-14.7364 -3.9813,-1.42712 -9.26286,-0.86297 -15.38365,0.86836 z"
         id="path17780"
         inkscape:path-effect="#path-effect17696"
         inkscape:original-d="m 274.38311,341.56728 c -6.95955,2.89878 -13.91936,5.79729 -20.87941,8.69553 -2.17601,1.08003 -4.35219,2.15974 -6.52867,3.23919 4.91447,17.07528 9.82847,34.14964 14.74231,51.22405 3.14222,1.47296 6.28407,2.94558 9.42568,4.41796 6.26174,-3.30703 12.52294,-6.61421 18.78401,-9.92174 2.78152,-16.36446 5.56266,-32.72851 8.34359,-49.09318 -2.68063,-3.41791 -5.36141,-6.83593 -8.04252,-10.2543 -5.2815,0.56444 -10.56306,1.12858 -15.84499,1.69249 z" />
    </clipPath>
    <clipPath
       clipPathUnits="userSpaceOnUse"
       id="clipPath29474">
      <path
         style="fill:none;stroke:#000000;stroke-width:0.264583px;stroke-linecap:butt;stroke-linejoin:miter;stroke-opacity:1"
         d="m 179.24973,-7.3998103 c -0.74846,8.31278653 -1.05495,28.7852683 0.38592,38.9723333 1.44086,10.187065 4.62872,10.088986 12.8582,8.663187 8.22949,-1.425799 21.50009,-4.179172 28.3414,-8.710571 6.84132,-4.531399 7.25328,-10.840803 6.16633,-18.418543 -1.08695,-7.5777403 -3.67283,-16.4234031 -6.45485,-21.0255196 -2.78202,-4.6021164 -5.76022,-4.9602174 -12.15436,-4.2696104 -6.39413,0.690606 -16.20369,2.4299325 -21.70379,1.376324 -5.5001,-1.053608 -6.6904,-4.900387 -7.43885,3.4123997 z"
         id="path29476"
         inkscape:path-effect="#path-effect29392"
         inkscape:original-d="m 178.80777,-19.559767 c -0.30622,20.47274738 -0.61272,40.945229 -0.91948,61.417445 3.18823,-0.09782 6.37609,-0.195896 9.56371,-0.294241 13.2714,-2.753219 26.542,-5.506592 39.8126,-8.260285 0.41225,-6.309393 0.8242,-12.618798 1.23592,-18.928594 -2.58572,-8.8457519 -5.1716,-17.6914143 -7.75779,-26.537519 -2.97805,-0.357849 -5.95625,-0.715949 -8.93477,-1.074322 -9.80967,1.739659 -19.61923,3.478985 -29.42924,5.218078 -1.19007,-3.846666 -2.38037,-7.693443 -3.57095,-11.540562 z" />
    </clipPath>
    <rect
       x="1811.856"
       y="-28.423298"
       width="737.70569"
       height="676.90143"
       id="rect39985" />
    <rect
       x="1811.856"
       y="-28.423298"
       width="737.70569"
       height="676.90143"
       id="rect42941" />
    <rect
       x="1811.856"
       y="-28.423298"
       width="737.70569"
       height="676.90143"
       id="rect884" />
    <rect
       x="1811.856"
       y="-28.423298"
       width="737.70569"
       height="676.90143"
       id="rect890" />
    <clipPath
       clipPathUnits="userSpaceOnUse"
       id="clipPath11057">
      <path
         style="fill:none;stroke:#000000;stroke-width:0.264583px;stroke-linecap:butt;stroke-linejoin:miter;stroke-opacity:1"
         d="m 184.85152,-5.1441209 c 3.34433,-0.02078 10.62334,-0.2132312 10.62334,-0.2132312 l -1.68572,7.8799231 -0.62259,3.6704509 -4.89243,0.2465552 z"
         id="path11059" />
    </clipPath>
    <clipPath
       clipPathUnits="userSpaceOnUse"
       id="clipPath11061">
      <path
         id="lpe_path-effect11065"
         style="fill:none;stroke:#000000;stroke-width:0.264583px;stroke-linecap:butt;stroke-linejoin:miter;stroke-opacity:1"
         class="powerclip"
         d="m 182.31087,-8.6004424 h 41.63838 V 9.70086 h -41.63838 z m 2.54065,3.4563215 3.4226,11.583698 4.89243,-0.2465551 0.62259,-3.6704509 1.68572,-7.8799231 c 0,0 -7.27901,0.1924511 -10.62334,0.2132311 z" />
    </clipPath>
  </defs>
  <sodipodi:namedview
     id="namedview12"
     pagecolor="#505050"
     bordercolor="#ffffff"
     borderopacity="1"
     inkscape:pageshadow="0"
     inkscape:pageopacity="0"
     inkscape:pagecheckerboard="1"
     showgrid="false"
     fit-margin-top="0"
     fit-margin-left="0"
     fit-margin-right="0"
     fit-margin-bottom="0"
     inkscape:zoom="1.5142873"
     inkscape:cx="99.056503"
     inkscape:cy="158.82059"
     inkscape:window-width="1366"
     inkscape:window-height="710"
     inkscape:window-x="0"
     inkscape:window-y="0"
     inkscape:window-maximized="1"
     inkscape:current-layer="svg10"
     showguides="true"
     inkscape:guide-bbox="true" />
  <text
     xml:space="preserve"
     style="font-style:normal;font-weight:normal;font-size:39.9999px;line-height:1.25;font-family:sans-serif;fill:#000000;fill-opacity:1;stroke:none;stroke-width:0.999999"
     x="-1727.4126"
     y="304.9834"
     id="text12645"><tspan
       sodipodi:role="line"
       id="tspan12643"
       style="stroke-width:0.999999"
       x="-1727.4126"
       y="304.9834" /></text>
  <text
     xml:space="preserve"
     style="font-style:normal;font-weight:normal;font-size:39.9999px;line-height:1.25;font-family:sans-serif;fill:#000000;fill-opacity:1;stroke:none;stroke-width:0.999999"
     x="-1777.1451"
     y="388.06808"
     id="text32968"><tspan
       sodipodi:role="line"
       id="tspan32966"
       style="stroke-width:0.999999"
       x="-1777.1451"
       y="388.06808" /></text>
  <text
     xml:space="preserve"
     style="font-style:normal;font-weight:normal;font-size:39.9999px;line-height:1.25;font-family:sans-serif;fill:#000000;fill-opacity:1;stroke:none;stroke-width:0.999999"
     x="-438.33649"
     y="561.28528"
     id="text12645-0"><tspan
       sodipodi:role="line"
       id="tspan12643-6"
       style="stroke-width:0.999999"
       x="-438.33649"
       y="561.28528" /></text>
  <text
     xml:space="preserve"
     style="font-style:normal;font-weight:normal;font-size:39.9999px;line-height:1.25;font-family:sans-serif;fill:#000000;fill-opacity:1;stroke:none;stroke-width:0.999999"
     x="-488.06903"
     y="644.37"
     id="text32968-1"><tspan
       sodipodi:role="line"
       id="tspan32966-5"
       style="stroke-width:0.999999"
       x="-488.06903"
       y="644.37" /></text>
  <g
     aria-label="Walls"
     transform="translate(-1546.4594,233.80708)"
     id="g52461"
     style="font-weight:bold;font-size:40px;line-height:1.25;font-family:'Liberation Mono';-inkscape-font-specification:'Liberation Mono, Bold';white-space:pre;shape-inside:url(#rect1879);fill:#fae3b0;fill-opacity:1">
    <text
       xml:space="preserve"
       style="font-style:normal;font-weight:normal;font-size:40px;line-height:1.25;font-family:sans-serif;fill:#000000;fill-opacity:1;stroke:none"
       x="1836.2086"
       y="-92.031197"
       id="text54590"><tspan
         sodipodi:role="line"
         id="tspan54588"
         x="1836.2086"
         y="-92.031197" /></text>
  </g>
  <g
     id="g4283">
    <path
       id="rect29538"
       style="fill:#fae3b0;stroke-width:0.803119"
       d="M 7.0954213,1.2696266e-6 H 203.28356 c 3.93087,0 7.09542,3.1645577303734 7.09542,7.0954208303734 V 233.92097 c 0,3.93086 -3.16455,7.09542 -7.09542,7.09542 H 7.0954213 C 3.1645581,241.01639 4.285431e-7,237.85183 4.285431e-7,233.92097 V 7.0954221 C 4.285431e-7,3.164559 3.1645581,1.2696266e-6 7.0954213,1.2696266e-6 Z" />
    <path
       style="fill:#33332f;fill-opacity:1;stroke-width:0.999999"
       d="m 24.912024,174.17421 c -0.333732,-0.86998 -0.606992,-3.08281 -0.606992,-4.91742 0,-2.79583 1.375521,-4.82816 8.500006,-12.55872 l 8.499968,-9.2231 v -12.18518 c 0,-11.70455 0.09865,-12.27781 2.500007,-14.53379 l 2.500006,-2.34864 V 80.628733 c 0,-25.951214 0.353764,-38.555001 1.12989,-40.258472 0.62143,-1.363911 4.765152,-5.097585 9.208214,-8.297053 l 8.078324,-5.817214 46.041793,-0.305311 c 31.24595,-0.207193 47.245,0.04615 49.78597,0.788395 6.72287,1.963819 6.75579,2.180692 6.75579,44.467259 V 108.756 h 3.39304 c 2.17149,0 3.61152,0.56946 3.99998,1.58179 0.86726,2.26 0.72344,37.69918 -0.15836,39.01245 -0.40407,0.60183 -8.44637,6.78933 -17.8718,13.75 L 139.53077,175.756 H 82.524911 c -51.059451,0 -57.06924,-0.16501 -57.612887,-1.58179 z m 110.393006,-6.54078 c 0,-1.21491 2.56569,-4.86534 6,-8.53658 3.29998,-3.52772 6.00011,-6.73507 6.00023,-7.12744 1.5e-4,-0.39238 -22.83734,-0.62202 -50.749987,-0.51029 l -50.750248,0.20311 -7.749996,8.10624 c -4.262514,4.45843 -7.749997,8.52953 -7.749997,9.04688 0,0.57558 20.375319,0.94064 52.49998,0.94064 H 135.30503 Z M 152.305,136.25599 V 126.756 H 99.805024 47.305006 v 9.49999 9.5 H 99.805024 152.305 Z m -98.619887,1.04812 c -0.806211,-2.10092 1.352466,-4.55181 3.992353,-4.53281 3.09857,0.0223 4.875288,1.45578 4.467628,3.60452 -0.477392,2.5163 -7.552705,3.29266 -8.459981,0.92829 z m 63.976627,-0.0608 c -1.37019,-3.57074 1.41657,-4.48731 13.64327,-4.48731 12.22669,0 15.01349,0.91657 13.64326,4.48727 -0.47717,1.24348 -2.90551,1.51273 -13.64326,1.51273 -10.73772,0 -13.16606,-0.26925 -13.64327,-1.51273 z m 31.03627,-18.06906 c 0.33373,-0.87002 0.60699,-18.33002 0.60699,-38.800036 0,-27.614166 -0.30954,-37.52787 -1.2,-38.418213 -1.72762,-1.727634 -92.872359,-1.727634 -94.599981,0 -1.722142,1.722141 -1.722142,75.877859 0,77.599999 0.899074,0.89907 12.909543,1.2 47.893001,1.2 41.65546,0 46.7585,-0.17064 47.29999,-1.58179 z m -88.786012,-7 c -0.792264,-2.06466 -0.792264,-60.771763 0,-62.83642 0.539603,-1.406204 5.079912,-1.581827 40.893012,-1.581827 35.8131,0 40.35341,0.175635 40.89302,1.581785 0.7923,2.064662 0.7923,60.771762 0,62.836422 -0.53961,1.40617 -5.07992,1.58179 -40.89302,1.58179 -35.8131,0 -40.353409,-0.17563 -40.893012,-1.58179 z m 67.143002,-4.41171 9.25002,-0.006 v -27.000004 -27 H 100.80501 65.305006 V 80.58943 c 0,14.758333 0.187087,27.02084 0.41571,27.25 0.228662,0.22915 12.041159,0.30712 26.250028,0.17321 14.208836,-0.13391 29.996786,-0.24639 35.084256,-0.25001 z"
       id="path29496" />
    <path
       id="rect904"
       style="fill:#4f4f44;stroke-width:0.902748"
       d="m 69.504691,56.477543 h 10.161732 c 0.716372,0 1.29309,0.576718 1.29309,1.29309 v 5.099711 c 0,0.716371 -0.576718,1.29309 -1.29309,1.29309 H 69.504691 c -0.716372,0 -1.29309,-0.576719 -1.29309,-1.29309 v -5.099711 c 0,-0.716372 0.576718,-1.29309 1.29309,-1.29309 z" />
    <path
       id="rect4199"
       style="fill:#33332f;stroke-width:0.902748"
       d="m 86.910438,56.477543 h 10.161731 c 0.716372,0 1.29309,0.576718 1.29309,1.29309 v 5.099711 c 0,0.716371 -0.576718,1.29309 -1.29309,1.29309 H 86.910438 c -0.716372,0 -1.29309,-0.576719 -1.29309,-1.29309 v -5.099711 c 0,-0.716372 0.576718,-1.29309 1.29309,-1.29309 z" />
    <path
       id="rect4272"
       style="fill:#33332f;stroke-width:0.902748"
       d="m 104.31607,56.477543 h 10.16173 c 0.71637,0 1.29309,0.576718 1.29309,1.29309 v 5.099711 c 0,0.716371 -0.57672,1.29309 -1.29309,1.29309 h -10.16173 c -0.71637,0 -1.29309,-0.576719 -1.29309,-1.29309 v -5.099711 c 0,-0.716372 0.57672,-1.29309 1.29309,-1.29309 z" />
    <path
       id="rect4274"
       style="fill:#33332f;stroke-width:0.902748"
       d="m 121.72182,56.477543 h 10.16173 c 0.71637,0 1.29309,0.576718 1.29309,1.29309 v 5.099711 c 0,0.716371 -0.57672,1.29309 -1.29309,1.29309 h -10.16173 c -0.71638,0 -1.29309,-0.576719 -1.29309,-1.29309 v -5.099711 c 0,-0.716372 0.57671,-1.29309 1.29309,-1.29309 z" />
    <path
       id="rect4374"
       style="fill:#33332f;stroke-width:0.966365"
       d="m 69.748952,76.339363 h 9.784401 c 0.820892,0 1.481755,0.660863 1.481755,1.481755 v 5.843771 c 0,0.820892 -0.660863,1.481755 -1.481755,1.481755 h -9.784401 c -0.820893,0 -1.481755,-0.660863 -1.481755,-1.481755 v -5.843771 c 0,-0.820892 0.660862,-1.481755 1.481755,-1.481755 z" />
    <path
       id="rect4376"
       style="fill:#6e6653;stroke-width:0.966365"
       d="m 87.154637,76.339363 h 9.784402 c 0.820892,0 1.481755,0.660863 1.481755,1.481755 v 5.843771 c 0,0.820892 -0.660863,1.481755 -1.481755,1.481755 h -9.784402 c -0.820892,0 -1.481755,-0.660863 -1.481755,-1.481755 v -5.843771 c 0,-0.820892 0.660863,-1.481755 1.481755,-1.481755 z" />
    <path
       id="rect4378"
       style="fill:#33332f;stroke-width:0.966365"
       d="m 104.56026,76.339363 h 9.7844 c 0.8209,0 1.48176,0.660863 1.48176,1.481755 v 5.843771 c 0,0.820892 -0.66086,1.481755 -1.48176,1.481755 h -9.7844 c -0.82089,0 -1.48175,-0.660863 -1.48175,-1.481755 v -5.843771 c 0,-0.820892 0.66086,-1.481755 1.48175,-1.481755 z" />
    <path
       id="rect4380"
       style="fill:#33332f;stroke-width:0.966365"
       d="m 121.96602,76.339363 h 9.7844 c 0.82089,0 1.48175,0.660863 1.48175,1.481755 v 5.843771 c 0,0.820892 -0.66086,1.481755 -1.48175,1.481755 h -9.7844 c -0.8209,0 -1.48176,-0.660863 -1.48176,-1.481755 v -5.843771 c 0,-0.820892 0.66086,-1.481755 1.48176,-1.481755 z" />
    <path
       id="rect4364"
       style="fill:#33332f;stroke-width:0.966365"
       d="m 79.069913,65.582222 h 9.784401 c 0.820892,0 1.481755,0.660863 1.481755,1.481755 v 5.843771 c 0,0.820892 -0.660863,1.481755 -1.481755,1.481755 h -9.784401 c -0.820893,0 -1.481755,-0.660863 -1.481755,-1.481755 v -5.843771 c 0,-0.820892 0.660862,-1.481755 1.481755,-1.481755 z" />
    <path
       id="rect4366"
       style="fill:#33332f;stroke-width:0.966365"
       d="m 96.475659,65.582222 h 9.784401 c 0.82089,0 1.48176,0.660863 1.48176,1.481755 v 5.843771 c 0,0.820892 -0.66087,1.481755 -1.48176,1.481755 h -9.784401 c -0.820892,0 -1.481755,-0.660863 -1.481755,-1.481755 v -5.843771 c 0,-0.820892 0.660863,-1.481755 1.481755,-1.481755 z" />
    <path
       id="rect4368"
       style="fill:#4f4f44;stroke-width:0.966365"
       d="m 113.8813,65.582222 h 9.7844 c 0.82089,0 1.48176,0.660863 1.48176,1.481755 v 5.843771 c 0,0.820892 -0.66087,1.481755 -1.48176,1.481755 h -9.7844 c -0.82089,0 -1.48176,-0.660863 -1.48176,-1.481755 v -5.843771 c 0,-0.820892 0.66087,-1.481755 1.48176,-1.481755 z" />
    <path
       id="rect4488"
       style="fill:#33332f;stroke-width:0.71108"
       d="m 69.443761,65.582222 h 3.938815 c 0.820893,0 1.481755,0.660863 1.481755,1.481755 v 5.843771 c 0,0.820892 -0.660862,1.481755 -1.481755,1.481755 h -3.938815 c -0.820893,0 -1.481755,-0.660863 -1.481755,-1.481755 v -5.843771 c 0,-0.820892 0.660862,-1.481755 1.481755,-1.481755 z" />
    <path
       id="rect4667"
       style="fill:#33332f;stroke-width:0.530098"
       d="m 130.43996,65.582207 h 0.87247 c 0.82089,0 1.48175,0.660862 1.48175,1.481755 v 5.84377 c 0,0.820893 -0.66086,1.481755 -1.48175,1.481755 h -0.87247 c -0.82089,0 -1.48175,-0.660862 -1.48175,-1.481755 v -5.84377 c 0,-0.820893 0.66086,-1.481755 1.48175,-1.481755 z" />
    <path
       id="rect4384"
       style="fill:#33332f;stroke-width:0.966365"
       d="m 79.429028,86.919327 h 9.784402 c 0.820892,0 1.481755,0.660863 1.481755,1.481755 v 5.84377 c 0,0.820893 -0.660863,1.481755 -1.481755,1.481755 h -9.784402 c -0.820892,0 -1.481755,-0.660862 -1.481755,-1.481755 v -5.84377 c 0,-0.820892 0.660863,-1.481755 1.481755,-1.481755 z" />
    <path
       id="rect4386"
       style="fill:#33332f;stroke-width:0.966365"
       d="m 96.834775,86.919327 h 9.784405 c 0.82089,0 1.48175,0.660863 1.48175,1.481755 v 5.84377 c 0,0.820893 -0.66086,1.481755 -1.48175,1.481755 h -9.784405 c -0.820893,0 -1.481755,-0.660862 -1.481755,-1.481755 v -5.84377 c 0,-0.820892 0.660862,-1.481755 1.481755,-1.481755 z" />
    <path
       id="rect4388"
       style="fill:#33332f;stroke-width:0.966365"
       d="m 114.24041,86.919327 h 9.7844 c 0.82089,0 1.48175,0.660863 1.48175,1.481755 v 5.84377 c 0,0.820893 -0.66086,1.481755 -1.48175,1.481755 h -9.7844 c -0.8209,0 -1.48176,-0.660862 -1.48176,-1.481755 v -5.84377 c 0,-0.820892 0.66086,-1.481755 1.48176,-1.481755 z" />
    <path
       id="rect4390"
       style="fill:#4f4f44;stroke-width:0.530098"
       d="m 130.79908,86.919327 h 0.87247 c 0.82089,0 1.48175,0.660863 1.48175,1.481755 v 5.84377 c 0,0.820893 -0.66086,1.481755 -1.48175,1.481755 h -0.87247 c -0.8209,0 -1.48176,-0.660862 -1.48176,-1.481755 v -5.84377 c 0,-0.820892 0.66086,-1.481755 1.48176,-1.481755 z" />
    <path
       id="rect4576"
       style="fill:#33332f;stroke-width:0.71108"
       d="m 69.802876,86.91935 h 3.938816 c 0.820892,0 1.481755,0.660862 1.481755,1.481755 v 5.84377 c 0,0.820892 -0.660863,1.481755 -1.481755,1.481755 h -3.938816 c -0.820892,0 -1.481755,-0.660863 -1.481755,-1.481755 v -5.84377 c 0,-0.820893 0.660863,-1.481755 1.481755,-1.481755 z" />
    <path
       id="rect4852"
       style="fill:#4f4f44;stroke-width:0.905325"
       d="m 69.567681,97.549446 h 10.146943 c 0.720468,0 1.300484,0.580016 1.300484,1.300484 v 5.12887 c 0,0.72047 -0.580016,1.30048 -1.300484,1.30048 H 69.567681 c -0.720469,0 -1.300484,-0.58001 -1.300484,-1.30048 v -5.12887 c 0,-0.720468 0.580015,-1.300484 1.300484,-1.300484 z" />
    <path
       id="rect4854"
       style="fill:#33332f;stroke-width:0.905325"
       d="M 86.973366,97.549446 H 97.12031 c 0.720468,0 1.300484,0.580016 1.300484,1.300484 v 5.12887 c 0,0.72047 -0.580016,1.30048 -1.300484,1.30048 H 86.973366 c -0.720468,0 -1.300484,-0.58001 -1.300484,-1.30048 v -5.12887 c 0,-0.720468 0.580016,-1.300484 1.300484,-1.300484 z" />
    <path
       id="rect4856"
       style="fill:#6b6554;stroke-width:0.905325"
       d="m 104.37899,97.549446 h 10.14694 c 0.72047,0 1.30049,0.580016 1.30049,1.300484 v 5.12887 c 0,0.72047 -0.58002,1.30048 -1.30049,1.30048 h -10.14694 c -0.72047,0 -1.30048,-0.58001 -1.30048,-1.30048 v -5.12887 c 0,-0.720468 0.58001,-1.300484 1.30048,-1.300484 z" />
    <path
       id="rect4858"
       style="fill:#33332f;stroke-width:0.905325"
       d="m 121.78474,97.549446 h 10.14695 c 0.72047,0 1.30048,0.580016 1.30048,1.300484 v 5.12887 c 0,0.72047 -0.58001,1.30048 -1.30048,1.30048 h -10.14695 c -0.72046,0 -1.30048,-0.58001 -1.30048,-1.30048 v -5.12887 c 0,-0.720468 0.58002,-1.300484 1.30048,-1.300484 z" />
    <g
       id="g80083"
       transform="matrix(3.7795275,0,0,3.7795275,-671.94331,205.4687)">
      <g
         id="g5170"
         style="fill:#33332f;fill-opacity:1"
         clip-path="url(#clipPath11057)"
         transform="translate(3.1750002)">
        <g
           aria-label="Walls"
           transform="matrix(0.26458334,0,0,0.26458334,-292.07591,2.3084553)"
           id="text1877"
           style="font-weight:bold;font-size:40px;line-height:1.25;font-family:'Liberation Mono';-inkscape-font-specification:'Liberation Mono, Bold';white-space:pre;shape-inside:url(#rect1879);fill:#33332f;fill-opacity:1">
          <path
             d="m 1831.7383,6.6515342 h -4.8438 l -1.25,-5.2148438 q -0.9765,-3.6914062 -1.7578,-7.2070312 l -0.6836,2.8710937 -0.8593,3.45703129 -1.5235,6.09375001 h -4.8437 l -4.1211,-26.3476562 h 5.0586 l 1.7382,13.5742187 q 0.2344,1.875 0.3125,5.19531249 l 0.293,-1.48437499 0.7813,-3.28125 1.9336,-6.6210942 h 3.8086 l 1.9335,6.6210942 q 0.254,0.8789062 0.4297,1.7382812 0.1953,0.8398438 0.6446,3.02734379 l 0.039,-0.52734379 q 0.1172,-3.1445312 0.3125,-4.6679687 l 1.6407,-13.5742187 h 5.0585 z"
             id="path10874"
             style="fill:#33332f;fill-opacity:1" />
          <path
             d="m 1844.4336,7.0421592 q -3.0664,0 -4.7852,-1.6601563 -1.7187,-1.6796875 -1.7187,-4.70703121 0,-3.28124999 2.0312,-4.98046879 2.0508,-1.71875 6.1133,-1.7773437 l 4.3555,-0.078125 v -1.0742188 q 0,-2.0117187 -0.6836,-3.0468754 -0.6836,-1.035156 -2.207,-1.035156 -1.4258,0 -2.1094,0.722656 -0.6641,0.7031254 -0.8203,2.2656254 l -5.7227,-0.2734375 q 1.0547,-6.2695309 8.8867,-6.2695309 3.9454,0 6.0352,1.933593 2.1094,1.933594 2.1094,5.6835942 v 7.65624999 q 0,1.77734371 0.3906,2.46093751 0.4102,0.6640625 1.3477,0.6640625 0.625,0 1.2109,-0.1171875 v 2.96875 q -0.4883,0.1171875 -0.8789,0.2148437 -0.3906,0.097656 -0.7813,0.15625 -0.3906,0.058594 -0.8398,0.097656 -0.4297,0.039063 -1.0156,0.039063 -2.0703,0 -3.0664,-1.015625 -0.9766,-1.015625 -1.1719,-2.9882813 h -0.1172 q -1.2305,2.2070313 -2.8125,3.1835938 -1.5625,0.9765625 -3.75,0.9765623 z m 5.9961,-10.1757813 -2.6172,0.039063 q -1.7578,0.039063 -2.5586,0.3710938 -0.7812,0.3125 -1.1914,1.0351562 -0.4102,0.70312504 -0.4102,1.93359379 0,2.96875001 2.3438,2.96875001 1.8945,0 3.1641,-1.484375 1.2695,-1.50390626 1.2695,-3.7890625 z"
             id="path10876"
             style="fill:#33332f;fill-opacity:1" />
          <path
             d="m 1878.0273,2.9015342 4.2383,0.039063 v 3.7109375 l -6.8164,-0.097656 q -1.9336,-0.3320312 -3.7304,-1.71875 -0.8399,-0.6445312 -1.3477,-2.2070312 -0.4492,-1.328125 -0.4883,-3.32031251 V -18.621903 h -5.664 v -3.710938 h 11.1523 v 22.26562519 q 0.039,1.67968751 0.4492,2.14843751 0.5274,0.6054687 2.207,0.8203125 z m 0.1172,0.039063 z m -2.7734,-3.00781251 z m 0.1758,6.71875001 z m -5.6641,-7.34375001 z"
             id="path10878"
             style="fill:#33332f;fill-opacity:1" />
          <path
             d="m 1902.0313,2.9015342 4.2382,0.039063 v 3.7109375 l -6.8164,-0.097656 q -1.9336,-0.3320312 -3.7304,-1.71875 -0.8399,-0.6445312 -1.3477,-2.2070312 -0.4492,-1.328125 -0.4883,-3.32031251 V -18.621903 h -5.664 v -3.710938 h 11.1523 v 22.26562519 q 0.039,1.67968751 0.4492,2.14843751 0.5274,0.6054687 2.2071,0.8203125 z m 0.1171,0.039063 z m -2.7734,-3.00781251 z m 0.1758,6.71875001 z m -5.6641,-7.34375001 z"
             id="path10880"
             style="fill:#33332f;fill-opacity:1" />
          <path
             d="m 1929.4336,0.47965919 q 0,3.06640621 -2.5195,4.82421871 -2.5,1.7382813 -6.9336,1.7382813 -4.3555,0 -6.6797,-1.3671875 -2.3047,-1.3867188 -3.0664,-4.296875 l 4.8242,-0.72265626 q 0.4102,1.50390626 1.4062,2.12890626 1.0157,0.625 3.5157,0.625 2.3047,0 3.3593,-0.5859375 1.0547,-0.5859375 1.0547,-1.83593751 0,-1.015625 -0.8593,-1.6015625 -0.8399,-0.60546879 -2.8711,-1.01562499 -4.6485,-0.9179688 -6.2696,-1.6992188 -1.6211,-0.8007812 -2.4804,-2.0507812 -0.8399,-1.2695313 -0.8399,-3.1054688 0,-3.0273434 2.3242,-4.7070314 2.3438,-1.699219 6.6211,-1.699219 3.7696,0 6.0547,1.464844 2.3047,1.464844 2.8711,4.2382814 l -4.8633,0.5078125 q -0.2343,-1.2890625 -1.1523,-1.9140629 -0.918,-0.644531 -2.9102,-0.644531 -1.9531,0 -2.9297,0.507813 -0.9765,0.488281 -0.9765,1.6601559 0,0.9179688 0.7422,1.4648438 0.7617,0.5273437 2.539,0.8789062 2.4805,0.5078125 4.3946,1.0546875 1.9336,0.5273438 3.0859,1.2695313 1.1719,0.7421875 1.8555,1.9140625 0.7031,1.1523437 0.7031,2.96874999 z"
             id="path10882"
             style="fill:#33332f;fill-opacity:1" />
        </g>
        <g
           aria-label="Walls"
           transform="matrix(0.26458334,0,0,0.26458334,-291.54674,2.837622)"
           id="text39983"
           style="font-weight:bold;font-size:40px;line-height:1.25;font-family:'Liberation Mono';-inkscape-font-specification:'Liberation Mono, Bold';white-space:pre;shape-inside:url(#rect39985);opacity:0.465526;fill:#33332f;fill-opacity:1">
          <path
             d="m 1831.7383,6.6515342 h -4.8438 l -1.25,-5.2148438 q -0.9765,-3.6914062 -1.7578,-7.2070312 l -0.6836,2.8710937 -0.8593,3.45703129 -1.5235,6.09375001 h -4.8437 l -4.1211,-26.3476562 h 5.0586 l 1.7382,13.5742187 q 0.2344,1.875 0.3125,5.19531249 l 0.293,-1.48437499 0.7813,-3.28125 1.9336,-6.6210942 h 3.8086 l 1.9335,6.6210942 q 0.254,0.8789062 0.4297,1.7382812 0.1953,0.8398438 0.6446,3.02734379 l 0.039,-0.52734379 q 0.1172,-3.1445312 0.3125,-4.6679687 l 1.6407,-13.5742187 h 5.0585 z"
             id="path10885"
             style="fill:#33332f;fill-opacity:1" />
          <path
             d="m 1844.4336,7.0421592 q -3.0664,0 -4.7852,-1.6601563 -1.7187,-1.6796875 -1.7187,-4.70703121 0,-3.28124999 2.0312,-4.98046879 2.0508,-1.71875 6.1133,-1.7773437 l 4.3555,-0.078125 v -1.0742188 q 0,-2.0117187 -0.6836,-3.0468754 -0.6836,-1.035156 -2.207,-1.035156 -1.4258,0 -2.1094,0.722656 -0.6641,0.7031254 -0.8203,2.2656254 l -5.7227,-0.2734375 q 1.0547,-6.2695309 8.8867,-6.2695309 3.9454,0 6.0352,1.933593 2.1094,1.933594 2.1094,5.6835942 v 7.65624999 q 0,1.77734371 0.3906,2.46093751 0.4102,0.6640625 1.3477,0.6640625 0.625,0 1.2109,-0.1171875 v 2.96875 q -0.4883,0.1171875 -0.8789,0.2148437 -0.3906,0.097656 -0.7813,0.15625 -0.3906,0.058594 -0.8398,0.097656 -0.4297,0.039063 -1.0156,0.039063 -2.0703,0 -3.0664,-1.015625 -0.9766,-1.015625 -1.1719,-2.9882813 h -0.1172 q -1.2305,2.2070313 -2.8125,3.1835938 -1.5625,0.9765625 -3.75,0.9765623 z m 5.9961,-10.1757813 -2.6172,0.039063 q -1.7578,0.039063 -2.5586,0.3710938 -0.7812,0.3125 -1.1914,1.0351562 -0.4102,0.70312504 -0.4102,1.93359379 0,2.96875001 2.3438,2.96875001 1.8945,0 3.1641,-1.484375 1.2695,-1.50390626 1.2695,-3.7890625 z"
             id="path10887"
             style="fill:#33332f;fill-opacity:1" />
          <path
             d="m 1878.0273,2.9015342 4.2383,0.039063 v 3.7109375 l -6.8164,-0.097656 q -1.9336,-0.3320312 -3.7304,-1.71875 -0.8399,-0.6445312 -1.3477,-2.2070312 -0.4492,-1.328125 -0.4883,-3.32031251 V -18.621903 h -5.664 v -3.710938 h 11.1523 v 22.26562519 q 0.039,1.67968751 0.4492,2.14843751 0.5274,0.6054687 2.207,0.8203125 z m 0.1172,0.039063 z m -2.7734,-3.00781251 z m 0.1758,6.71875001 z m -5.6641,-7.34375001 z"
             id="path10889"
             style="fill:#33332f;fill-opacity:1" />
          <path
             d="m 1902.0313,2.9015342 4.2382,0.039063 v 3.7109375 l -6.8164,-0.097656 q -1.9336,-0.3320312 -3.7304,-1.71875 -0.8399,-0.6445312 -1.3477,-2.2070312 -0.4492,-1.328125 -0.4883,-3.32031251 V -18.621903 h -5.664 v -3.710938 h 11.1523 v 22.26562519 q 0.039,1.67968751 0.4492,2.14843751 0.5274,0.6054687 2.2071,0.8203125 z m 0.1171,0.039063 z m -2.7734,-3.00781251 z m 0.1758,6.71875001 z m -5.6641,-7.34375001 z"
             id="path10891"
             style="fill:#33332f;fill-opacity:1" />
          <path
             d="m 1929.4336,0.47965919 q 0,3.06640621 -2.5195,4.82421871 -2.5,1.7382813 -6.9336,1.7382813 -4.3555,0 -6.6797,-1.3671875 -2.3047,-1.3867188 -3.0664,-4.296875 l 4.8242,-0.72265626 q 0.4102,1.50390626 1.4062,2.12890626 1.0157,0.625 3.5157,0.625 2.3047,0 3.3593,-0.5859375 1.0547,-0.5859375 1.0547,-1.83593751 0,-1.015625 -0.8593,-1.6015625 -0.8399,-0.60546879 -2.8711,-1.01562499 -4.6485,-0.9179688 -6.2696,-1.6992188 -1.6211,-0.8007812 -2.4804,-2.0507812 -0.8399,-1.2695313 -0.8399,-3.1054688 0,-3.0273434 2.3242,-4.7070314 2.3438,-1.699219 6.6211,-1.699219 3.7696,0 6.0547,1.464844 2.3047,1.464844 2.8711,4.2382814 l -4.8633,0.5078125 q -0.2343,-1.2890625 -1.1523,-1.9140629 -0.918,-0.644531 -2.9102,-0.644531 -1.9531,0 -2.9297,0.507813 -0.9765,0.488281 -0.9765,1.6601559 0,0.9179688 0.7422,1.4648438 0.7617,0.5273437 2.539,0.8789062 2.4805,0.5078125 4.3946,1.0546875 1.9336,0.5273438 3.0859,1.2695313 1.1719,0.7421875 1.8555,1.9140625 0.7031,1.1523437 0.7031,2.96874999 z"
             id="path10893"
             style="fill:#33332f;fill-opacity:1" />
        </g>
      </g>
      <g
         id="g11053"
         style="fill:#33332f;fill-opacity:1"
         transform="matrix(0.89791613,0,0,0.89791613,23.938686,0.47988197)"
         clip-path="url(#clipPath11061)">
        <g
           aria-label="Walls"
           transform="matrix(0.26458334,0,0,0.26458334,-292.07591,2.3084553)"
           id="g11039"
           style="font-weight:bold;font-size:40px;line-height:1.25;font-family:'Liberation Mono';-inkscape-font-specification:'Liberation Mono, Bold';white-space:pre;shape-inside:url(#rect1879);fill:#33332f;fill-opacity:1">
          <path
             d="m 1831.7383,6.6515342 h -4.8438 l -1.25,-5.2148438 q -0.9765,-3.6914062 -1.7578,-7.2070312 l -0.6836,2.8710937 -0.8593,3.45703129 -1.5235,6.09375001 h -4.8437 l -4.1211,-26.3476562 h 5.0586 l 1.7382,13.5742187 q 0.2344,1.875 0.3125,5.19531249 l 0.293,-1.48437499 0.7813,-3.28125 1.9336,-6.6210942 h 3.8086 l 1.9335,6.6210942 q 0.254,0.8789062 0.4297,1.7382812 0.1953,0.8398438 0.6446,3.02734379 l 0.039,-0.52734379 q 0.1172,-3.1445312 0.3125,-4.6679687 l 1.6407,-13.5742187 h 5.0585 z"
             id="path11029"
             style="fill:#33332f;fill-opacity:1" />
          <path
             d="m 1844.4336,7.0421592 q -3.0664,0 -4.7852,-1.6601563 -1.7187,-1.6796875 -1.7187,-4.70703121 0,-3.28124999 2.0312,-4.98046879 2.0508,-1.71875 6.1133,-1.7773437 l 4.3555,-0.078125 v -1.0742188 q 0,-2.0117187 -0.6836,-3.0468754 -0.6836,-1.035156 -2.207,-1.035156 -1.4258,0 -2.1094,0.722656 -0.6641,0.7031254 -0.8203,2.2656254 l -5.7227,-0.2734375 q 1.0547,-6.2695309 8.8867,-6.2695309 3.9454,0 6.0352,1.933593 2.1094,1.933594 2.1094,5.6835942 v 7.65624999 q 0,1.77734371 0.3906,2.46093751 0.4102,0.6640625 1.3477,0.6640625 0.625,0 1.2109,-0.1171875 v 2.96875 q -0.4883,0.1171875 -0.8789,0.2148437 -0.3906,0.097656 -0.7813,0.15625 -0.3906,0.058594 -0.8398,0.097656 -0.4297,0.039063 -1.0156,0.039063 -2.0703,0 -3.0664,-1.015625 -0.9766,-1.015625 -1.1719,-2.9882813 h -0.1172 q -1.2305,2.2070313 -2.8125,3.1835938 -1.5625,0.9765625 -3.75,0.9765623 z m 5.9961,-10.1757813 -2.6172,0.039063 q -1.7578,0.039063 -2.5586,0.3710938 -0.7812,0.3125 -1.1914,1.0351562 -0.4102,0.70312504 -0.4102,1.93359379 0,2.96875001 2.3438,2.96875001 1.8945,0 3.1641,-1.484375 1.2695,-1.50390626 1.2695,-3.7890625 z"
             id="path11031"
             style="fill:#33332f;fill-opacity:1" />
          <path
             d="m 1878.0273,2.9015342 4.2383,0.039063 v 3.7109375 l -6.8164,-0.097656 q -1.9336,-0.3320312 -3.7304,-1.71875 -0.8399,-0.6445312 -1.3477,-2.2070312 -0.4492,-1.328125 -0.4883,-3.32031251 V -18.621903 h -5.664 v -3.710938 h 11.1523 v 22.26562519 q 0.039,1.67968751 0.4492,2.14843751 0.5274,0.6054687 2.207,0.8203125 z m 0.1172,0.039063 z m -2.7734,-3.00781251 z m 0.1758,6.71875001 z m -5.6641,-7.34375001 z"
             id="path11033"
             style="fill:#33332f;fill-opacity:1" />
          <path
             d="m 1902.0313,2.9015342 4.2382,0.039063 v 3.7109375 l -6.8164,-0.097656 q -1.9336,-0.3320312 -3.7304,-1.71875 -0.8399,-0.6445312 -1.3477,-2.2070312 -0.4492,-1.328125 -0.4883,-3.32031251 V -18.621903 h -5.664 v -3.710938 h 11.1523 v 22.26562519 q 0.039,1.67968751 0.4492,2.14843751 0.5274,0.6054687 2.2071,0.8203125 z m 0.1171,0.039063 z m -2.7734,-3.00781251 z m 0.1758,6.71875001 z m -5.6641,-7.34375001 z"
             id="path11035"
             style="fill:#33332f;fill-opacity:1" />
          <path
             d="m 1929.4336,0.47965919 q 0,3.06640621 -2.5195,4.82421871 -2.5,1.7382813 -6.9336,1.7382813 -4.3555,0 -6.6797,-1.3671875 -2.3047,-1.3867188 -3.0664,-4.296875 l 4.8242,-0.72265626 q 0.4102,1.50390626 1.4062,2.12890626 1.0157,0.625 3.5157,0.625 2.3047,0 3.3593,-0.5859375 1.0547,-0.5859375 1.0547,-1.83593751 0,-1.015625 -0.8593,-1.6015625 -0.8399,-0.60546879 -2.8711,-1.01562499 -4.6485,-0.9179688 -6.2696,-1.6992188 -1.6211,-0.8007812 -2.4804,-2.0507812 -0.8399,-1.2695313 -0.8399,-3.1054688 0,-3.0273434 2.3242,-4.7070314 2.3438,-1.699219 6.6211,-1.699219 3.7696,0 6.0547,1.464844 2.3047,1.464844 2.8711,4.2382814 l -4.8633,0.5078125 q -0.2343,-1.2890625 -1.1523,-1.9140629 -0.918,-0.644531 -2.9102,-0.644531 -1.9531,0 -2.9297,0.507813 -0.9765,0.488281 -0.9765,1.6601559 0,0.9179688 0.7422,1.4648438 0.7617,0.5273437 2.539,0.8789062 2.4805,0.5078125 4.3946,1.0546875 1.9336,0.5273438 3.0859,1.2695313 1.1719,0.7421875 1.8555,1.9140625 0.7031,1.1523437 0.7031,2.96874999 z"
             id="path11037"
             style="fill:#33332f;fill-opacity:1" />
        </g>
        <g
           aria-label="Walls"
           transform="matrix(0.26458334,0,0,0.26458334,-291.54674,2.837622)"
           id="g11051"
           style="font-weight:bold;font-size:40px;line-height:1.25;font-family:'Liberation Mono';-inkscape-font-specification:'Liberation Mono, Bold';white-space:pre;shape-inside:url(#rect39985);opacity:0.465526;fill:#33332f;fill-opacity:1">
          <path
             d="m 1831.7383,6.6515342 h -4.8438 l -1.25,-5.2148438 q -0.9765,-3.6914062 -1.7578,-7.2070312 l -0.6836,2.8710937 -0.8593,3.45703129 -1.5235,6.09375001 h -4.8437 l -4.1211,-26.3476562 h 5.0586 l 1.7382,13.5742187 q 0.2344,1.875 0.3125,5.19531249 l 0.293,-1.48437499 0.7813,-3.28125 1.9336,-6.6210942 h 3.8086 l 1.9335,6.6210942 q 0.254,0.8789062 0.4297,1.7382812 0.1953,0.8398438 0.6446,3.02734379 l 0.039,-0.52734379 q 0.1172,-3.1445312 0.3125,-4.6679687 l 1.6407,-13.5742187 h 5.0585 z"
             id="path11041"
             style="fill:#33332f;fill-opacity:1" />
          <path
             d="m 1844.4336,7.0421592 q -3.0664,0 -4.7852,-1.6601563 -1.7187,-1.6796875 -1.7187,-4.70703121 0,-3.28124999 2.0312,-4.98046879 2.0508,-1.71875 6.1133,-1.7773437 l 4.3555,-0.078125 v -1.0742188 q 0,-2.0117187 -0.6836,-3.0468754 -0.6836,-1.035156 -2.207,-1.035156 -1.4258,0 -2.1094,0.722656 -0.6641,0.7031254 -0.8203,2.2656254 l -5.7227,-0.2734375 q 1.0547,-6.2695309 8.8867,-6.2695309 3.9454,0 6.0352,1.933593 2.1094,1.933594 2.1094,5.6835942 v 7.65624999 q 0,1.77734371 0.3906,2.46093751 0.4102,0.6640625 1.3477,0.6640625 0.625,0 1.2109,-0.1171875 v 2.96875 q -0.4883,0.1171875 -0.8789,0.2148437 -0.3906,0.097656 -0.7813,0.15625 -0.3906,0.058594 -0.8398,0.097656 -0.4297,0.039063 -1.0156,0.039063 -2.0703,0 -3.0664,-1.015625 -0.9766,-1.015625 -1.1719,-2.9882813 h -0.1172 q -1.2305,2.2070313 -2.8125,3.1835938 -1.5625,0.9765625 -3.75,0.9765623 z m 5.9961,-10.1757813 -2.6172,0.039063 q -1.7578,0.039063 -2.5586,0.3710938 -0.7812,0.3125 -1.1914,1.0351562 -0.4102,0.70312504 -0.4102,1.93359379 0,2.96875001 2.3438,2.96875001 1.8945,0 3.1641,-1.484375 1.2695,-1.50390626 1.2695,-3.7890625 z"
             id="path11043"
             style="fill:#33332f;fill-opacity:1" />
          <path
             d="m 1878.0273,2.9015342 4.2383,0.039063 v 3.7109375 l -6.8164,-0.097656 q -1.9336,-0.3320312 -3.7304,-1.71875 -0.8399,-0.6445312 -1.3477,-2.2070312 -0.4492,-1.328125 -0.4883,-3.32031251 V -18.621903 h -5.664 v -3.710938 h 11.1523 v 22.26562519 q 0.039,1.67968751 0.4492,2.14843751 0.5274,0.6054687 2.207,0.8203125 z m 0.1172,0.039063 z m -2.7734,-3.00781251 z m 0.1758,6.71875001 z m -5.6641,-7.34375001 z"
             id="path11045"
             style="fill:#33332f;fill-opacity:1" />
          <path
             d="m 1902.0313,2.9015342 4.2382,0.039063 v 3.7109375 l -6.8164,-0.097656 q -1.9336,-0.3320312 -3.7304,-1.71875 -0.8399,-0.6445312 -1.3477,-2.2070312 -0.4492,-1.328125 -0.4883,-3.32031251 V -18.621903 h -5.664 v -3.710938 h 11.1523 v 22.26562519 q 0.039,1.67968751 0.4492,2.14843751 0.5274,0.6054687 2.2071,0.8203125 z m 0.1171,0.039063 z m -2.7734,-3.00781251 z m 0.1758,6.71875001 z m -5.6641,-7.34375001 z"
             id="path11047"
             style="fill:#33332f;fill-opacity:1" />
          <path
             d="m 1929.4336,0.47965919 q 0,3.06640621 -2.5195,4.82421871 -2.5,1.7382813 -6.9336,1.7382813 -4.3555,0 -6.6797,-1.3671875 -2.3047,-1.3867188 -3.0664,-4.296875 l 4.8242,-0.72265626 q 0.4102,1.50390626 1.4062,2.12890626 1.0157,0.625 3.5157,0.625 2.3047,0 3.3593,-0.5859375 1.0547,-0.5859375 1.0547,-1.83593751 0,-1.015625 -0.8593,-1.6015625 -0.8399,-0.60546879 -2.8711,-1.01562499 -4.6485,-0.9179688 -6.2696,-1.6992188 -1.6211,-0.8007812 -2.4804,-2.0507812 -0.8399,-1.2695313 -0.8399,-3.1054688 0,-3.0273434 2.3242,-4.7070314 2.3438,-1.699219 6.6211,-1.699219 3.7696,0 6.0547,1.464844 2.3047,1.464844 2.8711,4.2382814 l -4.8633,0.5078125 q -0.2343,-1.2890625 -1.1523,-1.9140629 -0.918,-0.644531 -2.9102,-0.644531 -1.9531,0 -2.9297,0.507813 -0.9765,0.488281 -0.9765,1.6601559 0,0.9179688 0.7422,1.4648438 0.7617,0.5273437 2.539,0.8789062 2.4805,0.5078125 4.3946,1.0546875 1.9336,0.5273438 3.0859,1.2695313 1.1719,0.7421875 1.8555,1.9140625 0.7031,1.1523437 0.7031,2.96874999 z"
             id="path11049"
             style="fill:#33332f;fill-opacity:1" />
        </g>
      </g>
    </g>
    <path
       id="rect80129"
       style="fill:#fae3b0;stroke-width:0.999999"
       class="svg__rect"
       d="m 34.95858,256.27988 h 57.471962 c 2.229307,0 4.024021,1.79471 4.024021,4.02402 v 26.95196 c 0,2.2293 -1.794714,4.02402 -4.024021,4.02402 H 34.95858 c -2.229307,0 -4.024021,-1.79472 -4.024021,-4.02402 V 260.3039 c 0,-2.22931 1.794714,-4.02402 4.024021,-4.02402 z" />
    <path
       id="rect80131"
       style="fill:#33332f;stroke-width:0.999999"
       class="svg__rect"
       d="m 109.24948,256.27988 h 65.3999 c 2.65645,0 4.79505,2.13859 4.79505,4.79505 v 25.4099 c 0,2.65645 -2.1386,4.79505 -4.79505,4.79505 h -65.3999 c -2.65646,0 -4.79505,-2.1386 -4.79505,-4.79505 v -25.4099 c 0,-2.65646 2.13859,-4.79505 4.79505,-4.79505 z" />
    <path
       class="svg__text"
       d="m 46.634443,278.27989 h -1.479988 v -8.53 h 3.259994 q 1.429984,0 2.269984,0.74 0.84,0.75 0.84,1.97 v 0 q 0,1.26 -0.820006,1.95 -0.820007,0.7 -2.309972,0.7 v 0 h -1.760012 z m 0,-7.34 v 2.98 h 1.780006 q 0.789997,0 1.209978,-0.37002 0.410003,-0.37001 0.410003,-1.08 v 0 q 0,-0.68999 -0.419981,-1.09999 -0.420019,-0.41001 -1.160013,-0.43 v 0 z m 9.039987,4.5 v 0 -5.69 h 1.480025 v 5.71 q 0,0.85 0.429997,1.3 0.429997,0.45 1.279975,0.45 v 0 q 1.710009,0 1.710009,-1.8 v 0 -5.66 h 1.479987 v 5.7 q 0,1.36 -0.869971,2.15 -0.87001,0.8 -2.320025,0.8 v 0 q -1.469972,0 -2.330004,-0.79 -0.859993,-0.78 -0.859993,-2.17 z m 12.429996,2.84 h -1.479987 v -8.53 h 3 q 1.470009,0 2.28,0.66 0.800013,0.66 0.800013,1.92 v 0 q 0,0.85 -0.420019,1.43 -0.410003,0.58 -1.149997,0.89 v 0 l 1.92,3.55 v 0.08 h -1.59001 l -1.709971,-3.29 h -1.650029 z m 0,-7.34 v 2.86 h 1.520013 q 0.750009,0 1.169991,-0.37002 0.429996,-0.37999 0.429996,-1.03999 v 0 q 0,-0.68001 -0.389971,-1.06001 -0.39001,-0.37001 -1.170029,-0.38999 v 0 z m 14.570003,7.34 h -5.579981 v -8.53 h 5.539994 v 1.19 h -4.060006 v 2.36 h 3.510009 v 1.17 h -3.510009 v 2.63 h 4.099993 z"
       fill="#33332f"
       id="path80133"
       style="stroke-width:0.999999" />
    <path
       class="svg__text"
       d="m 123.1845,278.27989 h -4.54001 v -8.4 h 4.30001 q 1.59999,0 2.43999,0.59 0.85001,0.6 0.85001,1.6 v 0 q 0,0.6 -0.30009,1.08 -0.30009,0.47 -0.84,0.75 v 0 q 0.73002,0.25001 1.13,0.79 0.41001,0.53 0.41001,1.29 v 0 q 0,1.1 -0.89001,1.7 -0.89,0.6 -2.55998,0.6 z m -2.19001,-3.42 v 1.7 h 2.00001 q 1.23999,0 1.23999,-0.85 v 0 q 0,-0.85 -1.23999,-0.85 v 0 z m 0,-3.27 v 1.63 h 1.63 q 1.2,0 1.2,-0.82 v 0 q 0,-0.81 -1.2,-0.81 v 0 z m 16.74002,6.69 h -6.37999 v -8.4 h 2.37997 v 6.51 h 4.00002 z m 6.79998,0 h -2.37997 v -8.4 h 2.37997 z m 4.59,-0.76 v 0 l 0.78002,-1.75 q 0.55998,0.37001 1.29997,0.6 0.75001,0.22998 1.47001,0.22998 v 0 q 1.36003,0 1.37,-0.68 v 0 q 0,-0.36 -0.39001,-0.52999 -0.38997,-0.18002 -1.25998,-0.37002 v 0 q -0.95002,-0.20999 -1.57999,-0.44 -0.64002,-0.24 -1.09002,-0.75 -0.46,-0.52 -0.46,-1.39 v 0 q 0,-0.77 0.42002,-1.39 0.41998,-0.62 1.25998,-0.98 0.83002,-0.36 2.04,-0.36 v 0 q 0.83002,0 1.62999,0.18999 0.81003,0.18002 1.42001,0.55001 v 0 l -0.72998,1.76 q -1.2,-0.65001 -2.33,-0.65001 v 0 q -0.71002,0 -1.03,0.20999 -0.32995,0.20999 -0.32995,0.55 v 0 q 0,0.33 0.39001,0.5 0.37999,0.17001 1.23001,0.35002 v 0 q 0.96,0.20999 1.59001,0.44 0.62997,0.22999 1.09999,0.74 0.46001,0.51 0.46001,1.39 v 0 q 0,0.75 -0.42002,1.37 -0.41998,0.61 -1.25998,0.97 -0.84,0.37002 -2.04,0.37002 v 0 q -1.02002,0 -1.98002,-0.25002 -0.96,-0.25001 -1.56,-0.68 z m 11.24999,0 v 0 l 0.78002,-1.75 q 0.56002,0.37001 1.30001,0.6 0.74997,0.22998 1.46997,0.22998 v 0 q 1.36003,0 1.37,-0.68 v 0 q 0,-0.36 -0.38997,-0.52999 -0.39001,-0.18002 -1.26002,-0.37002 v 0 q -0.94998,-0.20999 -1.57999,-0.44 -0.63999,-0.24 -1.09002,-0.75 -0.45996,-0.52 -0.45996,-1.39 v 0 q 0,-0.77 0.41998,-1.39 0.42002,-0.62 1.26002,-0.98 0.82998,-0.36 2.04,-0.36 v 0 q 0.82998,0 1.62999,0.18999 0.80999,0.18002 1.42001,0.55001 v 0 l -0.73002,1.76 q -1.2,-0.65001 -2.33,-0.65001 v 0 q -0.70998,0 -1.03,0.20999 -0.32995,0.20999 -0.32995,0.55 v 0 q 0,0.33 0.38997,0.5 0.38003,0.17001 1.23001,0.35002 v 0 q 0.96,0.20999 1.59001,0.44 0.63001,0.22999 1.1,0.74 0.46,0.51 0.46,1.39 v 0 q 0,0.75 -0.42002,1.37 -0.41998,0.61 -1.25998,0.97 -0.84,0.37002 -2.04,0.37002 v 0 q -1.02002,0 -1.98002,-0.25002 -0.96,-0.25001 -1.56,-0.68 z"
       fill="#fae3b0"
       x="76.52000000000001"
       id="path80135"
       style="stroke-width:0.999999" />
  </g>
</svg>
